<svg width="568" height="329" viewBox="0 0 568 329" fill="none" xmlns="http://www.w3.org/2000/svg">
<path d="M381.956 67.7746L382.707 67.3986" stroke="black" stroke-width="10" stroke-miterlimit="10" stroke-linecap="round" stroke-linejoin="round"/>
<path d="M377.071 62.8896C374.389 61.5486 382.236 70.1686 384.21 71.1556" stroke="black" stroke-width="10" stroke-miterlimit="10" stroke-linecap="round" stroke-linejoin="round"/>
<path d="M376.32 62.1385L378.574 65.1446" stroke="black" stroke-width="10" stroke-miterlimit="10" stroke-linecap="round" stroke-linejoin="round"/>
<path d="M345.349 90.8575C345.349 92.6705 355.499 96.1726 360.177 93.0546" stroke="black" stroke-width="10" stroke-miterlimit="10" stroke-linecap="round" stroke-linejoin="round"/>
<path d="M331.814 35.1275C331.23 35.0345 330.611 35.0406 330.001 35.1906C329.081 35.5136 327.927 35.8886 327.064 36.3466C324.713 37.5936 322.73 39.4496 320.689 41.1276C318.729 42.7396 316.791 44.3695 314.876 46.0345C317.803 45.4195 320.735 44.7925 323.72 44.5345C325.637 44.3685 327.582 44.4926 329.501 44.3776C330.402 44.3246 331.263 44.1535 332.158 44.0345C334.598 43.4355 336.1 40.9745 335.501 38.5345C335.052 36.7035 333.564 35.4095 331.814 35.1275Z" fill="black"/>
<path d="M313.033 25.9426C312.518 25.9426 311.522 31.2806 311.28 32.3686C310.038 37.9576 306.225 43.0626 303.687 48.1396C303.244 49.0256 300.313 51.6646 299.306 51.0606C294.158 47.9716 287.171 29.6846 285.725 23.8986C285.346 22.3816 283.272 17.3366 284.265 16.0126C288.222 10.7366 298.682 10.3976 304.417 9.44157C308.978 8.68157 313.497 6.47756 317.998 5.35256C318.296 5.27756 318.656 4.84256 318.874 5.06056C319.397 5.58356 318.895 10.9646 319.312 12.2166C319.981 14.2236 322.378 15.0386 323.547 16.5966C324.93 18.4416 325.84 20.7046 327.344 22.5846C331.442 27.7076 337.471 28.8286 342.385 32.5146C343.522 33.3676 344.019 34.7256 345.159 35.5806C351.482 40.3236 358 44.7725 364.143 49.8915C367.998 53.1035 373.281 57.0166 377.724 59.2376C380.726 60.7386 386.069 60.7396 387.8 64.2026C391.138 70.8776 386.682 77.7445 384.003 83.7705C382.791 86.4985 382.414 89.6555 380.937 92.2405C374.082 104.237 365.079 110.454 351.731 113.123C350.126 113.444 348.55 114.496 346.9 115.073" stroke="black" stroke-width="10" stroke-miterlimit="10" stroke-linecap="round" stroke-linejoin="round"/>
<path d="M327.79 52.6196C327.121 53.9576 328.625 53.0756 328.666 52.9116C328.85 52.1746 328.174 51.8506 327.79 52.6196Z" stroke="black" stroke-width="10" stroke-miterlimit="10" stroke-linecap="round" stroke-linejoin="round"/>
<path d="M183.839 103.218C183.547 103.274 187.21 103.058 188.305 103.006C191.614 102.85 195.204 101.372 198.329 100.444C208.245 97.4966 217.714 93.8746 225.557 86.8616C228.355 84.3596 231.863 83.1946 234.986 81.1936C244.061 75.3816 251.832 67.2996 258.686 59.2756C262.437 54.8846 264.543 49.1986 268.147 44.8036C271.612 40.5786 275.31 36.6386 278.379 32.1156C279.943 29.8116 281.641 26.8486 284.179 25.4256" stroke="black" stroke-width="10" stroke-miterlimit="10" stroke-linecap="round" stroke-linejoin="round"/>
<path d="M162.911 103.937C129.652 103.937 96.186 102.372 63.01 105.69C56.965 106.294 37.143 103.764 33.465 107.442C22.442 118.465 45.797 117.526 47.236 124.719C47.524 126.163 43.915 129.23 42.979 130.477C39.577 135.014 38.481 143.22 36.72 148.505C33.837 157.153 35.742 167.751 36.72 176.548C37.051 179.534 36.107 182.667 36.469 185.561C36.832 188.461 38.144 191.612 37.721 194.575C36.112 205.841 34.981 220.027 29.208 230.129C27.739 232.701 25.21 234.188 23.449 236.389C21.52 238.801 20.649 241.802 18.692 244.15C14.624 249.033 10.021 252.98 7.175 258.672C5.601 261.819 6.23999 266.035 5.67199 269.439C3.53599 282.257 7.175 295.015 7.175 307.497" stroke="black" stroke-width="10" stroke-miterlimit="10" stroke-linecap="round" stroke-linejoin="round"/>
<path d="M6.69702 308.906C6.69702 303.019 7.23402 317.62 7.23402 319.655C7.23402 319.879 7.11402 320.804 7.50302 320.999C8.99702 321.746 12.408 320.367 14.222 320.73C19.611 321.808 25.279 322.202 30.883 321.268C43.091 319.233 56.253 322.749 68.506 320.999C68.824 320.953 69.302 320.929 69.896 320.92" stroke="black" stroke-width="10" stroke-miterlimit="10" stroke-linecap="round" stroke-linejoin="round"/>
<path d="M239.153 281.226C239.153 291.79 241.341 303.028 242.647 313.474C242.833 314.964 242.384 321.27 243.99 322.074C246.805 323.481 252.001 322.074 255.008 322.074C263.059 322.074 271.054 322.611 279.194 322.611C281.558 322.611 288.7 324.529 289.406 320.999C290.389 316.086 290.937 307.453 287.794 303.262C285.128 299.708 279.837 300.133 276.238 298.694C269.045 295.816 267.908 287.546 267.908 280.689" stroke="black" stroke-width="10" stroke-miterlimit="10" stroke-linecap="round" stroke-linejoin="round"/>
<path d="M80.749 319.668C83.438 319.812 86.665 320.779 88.337 320.779C95.527 320.779 118.38 322.614 120.688 313.385C127.972 284.249 90.192 298.556 93.883 276.412C96.863 258.531 124.22 246.746 134.552 232.97C138.248 228.043 139.842 219.922 141.023 214.021C142.235 207.957 144.634 202.057 145.644 195.997C147.098 187.272 145.644 177.131 145.644 168.268" stroke="black" stroke-width="10" stroke-miterlimit="10" stroke-linecap="round" stroke-linejoin="round"/>
<path d="M78.631 318.469C77.835 316.877 74.305 316.957 72.623 315.696C64.925 309.922 58.142 309.376 55.986 298.596C53.814 287.736 55.743 277.163 57.834 266.707C59.483 258.465 58.522 251.754 62.918 244.061C66.694 237.454 73.052 233.003 78.169 227.886C82.108 223.947 91.193 209.512 93.42 204.316C96.902 196.192 98.688 184.987 97.58 176.124C97.235 173.364 95.269 170.979 95.269 168.268" stroke="black" stroke-width="10" stroke-miterlimit="10" stroke-linecap="round" stroke-linejoin="round"/>
<path d="M65.229 316.62L68.002 315.696" stroke="black" stroke-width="10" stroke-miterlimit="10" stroke-linecap="round" stroke-linejoin="round"/>
<path d="M70.775 319.393V316.158" stroke="black" stroke-width="10" stroke-miterlimit="10" stroke-linecap="round" stroke-linejoin="round"/>
<path d="M288.8 110.96C288.118 113.684 287.684 116.52 286.431 119.026C281.051 129.787 269.496 142.723 258.827 148.058" stroke="black" stroke-width="10" stroke-miterlimit="10" stroke-linecap="round" stroke-linejoin="round"/>
<path d="M331.439 98.2845C330.856 98.3815 330.282 98.6036 329.751 98.9406C327.63 100.288 326.998 103.101 328.345 105.222C329 106.066 329.446 106.922 329.908 107.878C329.99 108.05 330.135 108.196 330.189 108.378C331.765 113.767 328.177 119.125 324.532 122.754C329.171 120.76 333.437 117.518 336.001 113.097C337.281 110.89 338.092 108.33 337.845 105.754C337.66 103.819 336.961 102.035 336.032 100.347C335.022 98.7556 333.188 97.9915 331.439 98.2845Z" fill="black"/>
<path d="M320.845 94.8776C318.37 95.3126 316.723 97.6846 317.158 100.16C317.512 101.543 317.766 102.943 318.158 104.316C318.595 105.849 319.072 107.514 318.876 109.128C318.578 111.586 317.095 113.807 315.751 115.816C314.85 117.163 313.946 118.477 313.032 119.816C317.883 116.543 323.575 113.412 325.501 107.472C325.85 106.398 326.1 105.121 326.251 104.004C326.494 102.216 326.28 100.348 326.095 98.5656C325.66 96.0906 323.32 94.4436 320.845 94.8776Z" fill="black"/>
<path d="M305.595 92.0345C303.099 91.7445 300.822 93.5385 300.532 96.0345C300.243 98.5305 302.036 100.776 304.532 101.066C304.943 101.082 305.377 101.155 305.751 101.16C305.805 101.16 305.477 100.519 305.72 100.535C306.206 100.567 306.033 101.808 306.032 102.066C306.031 103.995 305.42 105.849 304.72 107.628C303.083 111.79 300.688 115.561 298.408 119.378C301.846 116.343 305.313 113.375 308.376 109.941C309.965 108.161 311.594 106.191 312.658 104.035C313.022 103.296 313.196 102.521 313.376 101.722C314.085 98.5856 313.178 95.7646 310.501 93.8466C309.03 92.7926 307.353 92.3295 305.595 92.0345Z" fill="black"/>
<path d="M213.551 177.121C222.027 177.121 228.923 179.182 234.238 183.303C239.554 187.424 242.75 194.519 243.827 204.588H231.534C230.785 199.952 229.075 196.1 226.406 193.032C223.737 189.965 219.451 188.431 213.551 188.431C205.496 188.431 199.735 192.365 196.27 200.233C194.022 205.337 192.898 211.636 192.898 219.129C192.898 226.669 194.49 233.015 197.675 238.166C200.859 243.318 205.87 245.893 212.708 245.893C217.953 245.893 222.109 244.289 225.177 241.081C228.244 237.873 230.363 233.483 231.534 227.91H243.827C242.422 237.885 238.91 245.179 233.29 249.792C227.67 254.405 220.482 256.711 211.724 256.711C201.89 256.711 194.045 253.117 188.192 245.928C182.338 238.74 179.411 229.76 179.411 218.989C179.411 205.782 182.619 195.503 189.035 188.15C195.45 180.798 203.622 177.121 213.551 177.121Z" fill="black"/>
<path d="M286.327 246.385C294.709 246.385 300.458 243.212 303.572 236.867C306.687 230.521 308.244 223.461 308.244 215.687C308.244 208.662 307.12 202.949 304.872 198.547C301.313 191.616 295.178 188.15 286.467 188.15C278.74 188.15 273.12 191.101 269.608 197.001C266.096 202.902 264.339 210.02 264.339 218.356C264.339 226.365 266.096 233.038 269.608 238.377C273.12 243.716 278.693 246.385 286.327 246.385ZM286.818 177.121C296.512 177.121 304.708 180.353 311.405 186.815C318.102 193.278 321.45 202.785 321.45 215.336C321.45 227.465 318.5 237.487 312.599 245.402C306.698 253.316 297.543 257.273 285.132 257.273C274.783 257.273 266.564 253.773 260.476 246.771C254.388 239.77 251.344 230.369 251.344 218.567C251.344 205.923 254.552 195.854 260.967 188.361C267.383 180.868 276 177.121 286.818 177.121Z" fill="black"/>
<path d="M336.834 179.299H348.847V192.295C349.83 189.766 352.242 186.687 356.082 183.057C359.922 179.428 364.348 177.613 369.359 177.613C369.593 177.613 369.991 177.637 370.553 177.683C371.115 177.73 372.075 177.824 373.433 177.964V191.311C372.684 191.171 371.993 191.077 371.361 191.03C370.729 190.983 370.038 190.96 369.288 190.96C362.919 190.96 358.026 193.009 354.607 197.107C351.188 201.204 349.479 205.923 349.479 211.261V254.534H336.834V179.299Z" fill="black"/>
<path d="M384.392 179.65H397.247V254.534H384.392V179.65ZM384.392 151.341H397.247V165.671H384.392V151.341Z" fill="black"/>
<path d="M424.362 217.794C424.362 225.849 426.071 232.593 429.49 238.026C432.909 243.458 438.388 246.174 445.928 246.174C451.782 246.174 456.594 243.657 460.364 238.623C464.134 233.588 466.019 226.365 466.019 216.951C466.019 207.445 464.075 200.408 460.188 195.842C456.301 191.276 451.501 188.993 445.787 188.993C439.418 188.993 434.255 191.428 430.298 196.299C426.341 201.169 424.362 208.334 424.362 217.794ZM443.399 177.964C449.159 177.964 453.983 179.182 457.87 181.617C460.118 183.022 462.67 185.481 465.527 188.993V150.989H477.68V254.534H466.3V244.067C463.349 248.703 459.86 252.052 455.833 254.112C451.805 256.173 447.192 257.203 441.994 257.203C433.611 257.203 426.352 253.679 420.218 246.631C414.083 239.583 411.015 230.205 411.015 218.497C411.015 207.538 413.813 198.043 419.41 190.012C425.006 181.98 433.003 177.964 443.399 177.964Z" fill="black"/>
<path d="M526.22 246.385C534.603 246.385 540.352 243.212 543.466 236.867C546.58 230.521 548.137 223.461 548.137 215.687C548.137 208.662 547.013 202.949 544.766 198.547C541.206 191.616 535.071 188.15 526.361 188.15C518.634 188.15 513.014 191.101 509.502 197.001C505.989 202.902 504.233 210.02 504.233 218.356C504.233 226.365 505.989 233.038 509.502 238.377C513.014 243.716 518.587 246.385 526.22 246.385ZM526.712 177.121C536.406 177.121 544.602 180.353 551.299 186.815C557.995 193.278 561.344 202.785 561.344 215.336C561.344 227.465 558.394 237.487 552.493 245.402C546.592 253.316 537.436 257.273 525.026 257.273C514.676 257.273 506.458 253.773 500.369 246.771C494.281 239.77 491.237 230.369 491.237 218.567C491.237 205.923 494.445 195.854 500.861 188.361C507.277 180.868 515.894 177.121 526.712 177.121Z" fill="black"/>
</svg>
